<?xml version="1.0" encoding="UTF-8" standalone="no"?>
<!DOCTYPE svg PUBLIC "-//W3C//DTD SVG 1.1//EN"
 "http://www.w3.org/Graphics/SVG/1.1/DTD/svg11.dtd">
<!-- Generated by graphviz version 2.38.0 (20140413.2041)
 -->
<!-- Title: World Pages: 1 -->
<svg width="195pt" height="157pt"
 viewBox="0.00 0.00 195.00 157.00" xmlns="http://www.w3.org/2000/svg" xmlns:xlink="http://www.w3.org/1999/xlink">
<g id="graph0" class="graph" transform="scale(1 1) rotate(0) translate(4 153)">
<title>World</title>
<text text-anchor="start" x="12.5" y="-133.2" font-family="Arial" font-weight="bold" font-size="16.00">EC Data Organization</text>
<text text-anchor="start" x="52" y="-117.2" font-family="Arial" font-weight="bold" font-size="16.00">(simplified)</text>
<!-- world -->
<g id="node1" class="node"><title>world</title>
<polygon fill="#f5f5f5" stroke="black" points="187,-93 0,-93 0,-0 187,-0 187,-93"/>
<text text-anchor="start" x="12.5" y="-76.7" font-family="consolas" font-weight="bold" font-size="11.00">World</text>
<text text-anchor="start" x="12.5" y="-57.7" font-family="consolas" font-size="11.00">contact_detailses: </text>
<polygon fill="#eecc99" stroke="none" points="131.5,-52.5 131.5,-68.5 137.5,-68.5 137.5,-52.5 131.5,-52.5"/>
<polygon fill="none" stroke="black" points="131.5,-52.5 131.5,-68.5 137.5,-68.5 137.5,-52.5 131.5,-52.5"/>
<polygon fill="#aaccff" stroke="none" points="139.5,-22.5 139.5,-68.5 145.5,-68.5 145.5,-22.5 139.5,-22.5"/>
<polygon fill="none" stroke="black" points="139.5,-22.5 139.5,-68.5 145.5,-68.5 145.5,-22.5 139.5,-22.5"/>
<polygon fill="#eecc99" stroke="none" points="147.5,-52.5 147.5,-68.5 153.5,-68.5 153.5,-52.5 147.5,-52.5"/>
<polygon fill="none" stroke="black" points="147.5,-52.5 147.5,-68.5 153.5,-68.5 153.5,-52.5 147.5,-52.5"/>
<polygon fill="#eecc99" stroke="none" points="155.5,-52.5 155.5,-68.5 161.5,-68.5 161.5,-52.5 155.5,-52.5"/>
<polygon fill="none" stroke="black" points="155.5,-52.5 155.5,-68.5 161.5,-68.5 161.5,-52.5 155.5,-52.5"/>
<polygon fill="#eecc99" stroke="none" points="163.5,-52.5 163.5,-68.5 169.5,-68.5 169.5,-52.5 163.5,-52.5"/>
<polygon fill="none" stroke="black" points="163.5,-52.5 163.5,-68.5 169.5,-68.5 169.5,-52.5 163.5,-52.5"/>
<polygon fill="#eecc99" stroke="none" points="171.5,-52.5 171.5,-68.5 177.5,-68.5 177.5,-52.5 171.5,-52.5"/>
<polygon fill="none" stroke="black" points="171.5,-52.5 171.5,-68.5 177.5,-68.5 177.5,-52.5 171.5,-52.5"/>
<text text-anchor="start" x="12.5" y="-39.7" font-family="consolas" font-size="11.00">date_of_births &#160;&#160;: </text>
<polygon fill="#eecc99" stroke="none" points="131.5,-34.5 131.5,-50.5 137.5,-50.5 137.5,-34.5 131.5,-34.5"/>
<polygon fill="none" stroke="black" points="131.5,-34.5 131.5,-50.5 137.5,-50.5 137.5,-34.5 131.5,-34.5"/>
<polygon fill="#eecc99" stroke="none" points="147.5,-34.5 147.5,-50.5 153.5,-50.5 153.5,-34.5 147.5,-34.5"/>
<polygon fill="none" stroke="black" points="147.5,-34.5 147.5,-50.5 153.5,-50.5 153.5,-34.5 147.5,-34.5"/>
<polygon fill="#eecc99" stroke="none" points="155.5,-34.5 155.5,-50.5 161.5,-50.5 161.5,-34.5 155.5,-34.5"/>
<polygon fill="none" stroke="black" points="155.5,-34.5 155.5,-50.5 161.5,-50.5 161.5,-34.5 155.5,-34.5"/>
<polygon fill="#eecc99" stroke="none" points="163.5,-34.5 163.5,-50.5 169.5,-50.5 169.5,-34.5 163.5,-34.5"/>
<polygon fill="none" stroke="black" points="163.5,-34.5 163.5,-50.5 169.5,-50.5 169.5,-34.5 163.5,-34.5"/>
<polygon fill="#eecc99" stroke="none" points="171.5,-34.5 171.5,-50.5 177.5,-50.5 177.5,-34.5 171.5,-34.5"/>
<polygon fill="none" stroke="black" points="171.5,-34.5 171.5,-50.5 177.5,-50.5 177.5,-34.5 171.5,-34.5"/>
<text text-anchor="start" x="133.5" y="-11.5" font-family="Arial" font-weight="bold" font-size="10.00">Person</text>
</g>
</g>
</svg>
