<?xml version="1.0" encoding="UTF-8" standalone="no"?>
<!DOCTYPE svg PUBLIC "-//W3C//DTD SVG 1.1//EN"
 "http://www.w3.org/Graphics/SVG/1.1/DTD/svg11.dtd">
<!-- Generated by graphviz version 2.38.0 (20140413.2041)
 -->
<!-- Title: Dispatcher Pages: 1 -->
<svg width="546pt" height="313pt"
 viewBox="0.00 0.00 546.35 312.69" xmlns="http://www.w3.org/2000/svg" xmlns:xlink="http://www.w3.org/1999/xlink">
<g id="graph0" class="graph" transform="scale(1 1) rotate(0) translate(4 308.693)">
<title>Dispatcher</title>
<g id="clust1" class="cluster"><title>cluster_systems</title>
<polygon fill="none" stroke="black" points="138.347,-8 138.347,-296.693 530.347,-296.693 530.347,-8 138.347,-8"/>
</g>
<!-- thread_pool -->
<g id="node1" class="node"><title>thread_pool</title>
<ellipse fill="#af00af" stroke="black" cx="64.3467" cy="-152.347" rx="64.1938" ry="64.1938"/>
<text text-anchor="start" x="31.3467" y="-177.547" font-family="consolas" font-weight="bold" font-size="11.00">Thread Pool</text>
<text text-anchor="start" x="46.3467" y="-158.547" font-family="consolas" font-size="11.00">core_0</text>
<text text-anchor="start" x="46.3467" y="-140.547" font-family="consolas" font-size="11.00">core_1</text>
<text text-anchor="start" x="55.3467" y="-122.547" font-family="consolas" font-size="11.00">...</text>
</g>
<!-- invis_2 -->
<!-- invis_2&#45;&gt;thread_pool -->
<!-- bgm -->
<g id="node3" class="node"><title>bgm</title>
<polygon fill="#aaccff" stroke="black" points="522.347,-288.693 460.347,-288.693 460.347,-252.693 522.347,-252.693 522.347,-288.693"/>
<text text-anchor="start" x="472.347" y="-268.893" font-family="consolas" font-weight="bold" font-size="11.00" fill="#af00af">C0</text>
<text text-anchor="start" x="485.347" y="-268.893" font-family="consolas" font-weight="bold" font-size="11.00"> Bgm</text>
</g>
<!-- invis_1 -->
<!-- bgm&#45;&gt;invis_1 -->
<!-- input_update -->
<g id="node4" class="node"><title>input_update</title>
<polygon fill="#aaccff" stroke="black" points="307.847,-288.693 216.847,-288.693 216.847,-252.693 307.847,-252.693 307.847,-288.693"/>
<text text-anchor="start" x="229.347" y="-268.893" font-family="consolas" font-weight="bold" font-size="11.00">InputUpdate</text>
</g>
<!-- speech_bubble_update -->
<g id="node5" class="node"><title>speech_bubble_update</title>
<polygon fill="#aaccff" stroke="black" points="298.347,-170.347 146.347,-170.347 146.347,-134.347 298.347,-134.347 298.347,-170.347"/>
<text text-anchor="start" x="158.347" y="-150.547" font-family="consolas" font-weight="bold" font-size="11.00" fill="#af00af">C1</text>
<text text-anchor="start" x="171.347" y="-150.547" font-family="consolas" font-weight="bold" font-size="11.00"> SpeechBubbleUpdate</text>
</g>
<!-- input_update&#45;&gt;speech_bubble_update -->
<g id="edge3" class="edge"><title>input_update&#45;&gt;speech_bubble_update</title>
<path fill="none" stroke="black" d="M256.445,-252.526C249.886,-233.45 239.213,-202.406 231.554,-180.128"/>
<polygon fill="black" stroke="black" points="234.834,-178.903 228.273,-170.585 228.215,-181.179 234.834,-178.903"/>
</g>
<!-- velocity_update -->
<g id="node6" class="node"><title>velocity_update</title>
<polygon fill="#aaccff" stroke="black" points="444.347,-170.347 316.347,-170.347 316.347,-134.347 444.347,-134.347 444.347,-170.347"/>
<text text-anchor="start" x="328.347" y="-150.547" font-family="consolas" font-weight="bold" font-size="11.00" fill="#af00af">C2</text>
<text text-anchor="start" x="341.347" y="-150.547" font-family="consolas" font-weight="bold" font-size="11.00"> VelocityUpdate</text>
</g>
<!-- input_update&#45;&gt;velocity_update -->
<g id="edge2" class="edge"><title>input_update&#45;&gt;velocity_update</title>
<path fill="none" stroke="black" d="M279.758,-252.526C299.802,-232.763 332.876,-200.153 355.591,-177.755"/>
<polygon fill="black" stroke="black" points="358.201,-180.098 362.864,-170.585 353.286,-175.113 358.201,-180.098"/>
</g>
<!-- position_update -->
<g id="node7" class="node"><title>position_update</title>
<polygon fill="#aaccff" stroke="black" points="434.847,-52 325.847,-52 325.847,-16 434.847,-16 434.847,-52"/>
<text text-anchor="start" x="338.347" y="-32.2" font-family="consolas" font-weight="bold" font-size="11.00">PositionUpdate</text>
</g>
<!-- velocity_update&#45;&gt;position_update -->
<g id="edge4" class="edge"><title>velocity_update&#45;&gt;position_update</title>
<path fill="none" stroke="black" d="M380.347,-134.179C380.347,-115.275 380.347,-84.6173 380.347,-62.386"/>
<polygon fill="black" stroke="black" points="383.847,-62.2378 380.347,-52.2378 376.847,-62.2378 383.847,-62.2378"/>
</g>
<!-- invis_0 -->
<!-- invis_0&#45;&gt;velocity_update -->
<!-- invis_0&#45;&gt;invis_1 -->
</g>
</svg>
