<?xml version="1.0" encoding="UTF-8" standalone="no"?>
<!DOCTYPE svg PUBLIC "-//W3C//DTD SVG 1.1//EN"
 "http://www.w3.org/Graphics/SVG/1.1/DTD/svg11.dtd">
<!-- Generated by graphviz version 2.38.0 (20140413.2041)
 -->
<!-- Title: InterfaceInheritance Pages: 1 -->
<svg width="346pt" height="158pt"
 viewBox="0.00 0.00 346.00 158.00" xmlns="http://www.w3.org/2000/svg" xmlns:xlink="http://www.w3.org/1999/xlink">
<g id="graph0" class="graph" transform="scale(1 1) rotate(0) translate(4 154)">
<title>InterfaceInheritance</title>
<text text-anchor="start" x="91.5" y="-134.2" font-family="Arial" font-weight="bold" font-size="16.00">Interface Inheritance</text>
<g id="clust1" class="cluster"><title>cluster_interfaces</title>
<polygon fill="none" stroke="none" points="8,-64 8,-116 330,-116 330,-64 8,-64"/>
</g>
<!-- renderable -->
<g id="node1" class="node"><title>renderable</title>
<polygon fill="#ffee77" stroke="black" points="249.5,-108 172.5,-108 172.5,-72 249.5,-72 249.5,-108"/>
<text text-anchor="start" x="180.5" y="-88.2" font-family="consolas" font-weight="bold" font-size="11.00">Renderable</text>
</g>
<!-- player -->
<g id="node5" class="node"><title>player</title>
<polygon fill="#bbddff" stroke="black" points="154,-36 100,-36 100,-0 154,-0 154,-36"/>
<text text-anchor="start" x="108.5" y="-16.2" font-family="consolas" font-weight="bold" font-size="11.00">Player</text>
</g>
<!-- renderable&#45;&gt;player -->
<g id="edge1" class="edge"><title>renderable&#45;&gt;player</title>
<path fill="none" stroke="black" d="M182.239,-65.0328C170.829,-55.524 157.966,-44.8049 147.525,-36.1043"/>
<polygon fill="none" stroke="black" points="180.313,-67.9835 190.236,-71.6966 184.794,-62.606 180.313,-67.9835"/>
</g>
<!-- monster -->
<g id="node6" class="node"><title>monster</title>
<polygon fill="#bbddff" stroke="black" points="80.5,-36 21.5,-36 21.5,-0 80.5,-0 80.5,-36"/>
<text text-anchor="start" x="29.5" y="-16.2" font-family="consolas" font-weight="bold" font-size="11.00">Monster</text>
</g>
<!-- renderable&#45;&gt;monster -->
<g id="edge4" class="edge"><title>renderable&#45;&gt;monster</title>
<path fill="none" stroke="#000000" stroke-opacity="0.309804" d="M169.079,-67.1663C165.38,-65.2394 163,-64 163,-64 163,-64 91,-36 91,-36 91,-36 86.6934,-34.1697 80.9063,-31.7102"/>
<polygon fill="none" stroke="#000000" stroke-opacity="0.309804" points="167.702,-70.395 178.188,-71.9102 170.935,-64.1866 167.702,-70.395"/>
</g>
<!-- speech_bubble -->
<g id="node7" class="node"><title>speech_bubble</title>
<polygon fill="#bbddff" stroke="black" points="232,-36 178,-36 178,-0 232,-0 232,-36"/>
<text text-anchor="start" x="186.5" y="-21.2" font-family="consolas" font-weight="bold" font-size="11.00">Speech</text>
<text text-anchor="start" x="186.5" y="-10.2" font-family="consolas" font-weight="bold" font-size="11.00">Bubble</text>
</g>
<!-- renderable&#45;&gt;speech_bubble -->
<g id="edge6" class="edge"><title>renderable&#45;&gt;speech_bubble</title>
<path fill="none" stroke="#000000" stroke-opacity="0.309804" d="M208.657,-61.6651C207.919,-53.0537 207.125,-43.7913 206.466,-36.1043"/>
<polygon fill="none" stroke="#000000" stroke-opacity="0.309804" points="205.176,-62.0321 209.517,-71.6966 212.15,-61.4342 205.176,-62.0321"/>
</g>
<!-- map -->
<g id="node8" class="node"><title>map</title>
<polygon fill="#bbddff" stroke="black" points="313,-36 259,-36 259,-0 313,-0 313,-36"/>
<text text-anchor="start" x="276.5" y="-16.2" font-family="consolas" font-weight="bold" font-size="11.00">Map</text>
</g>
<!-- renderable&#45;&gt;map -->
<g id="edge8" class="edge"><title>renderable&#45;&gt;map</title>
<path fill="none" stroke="#880000" d="M236.976,-64.7555C247.09,-55.316 258.442,-44.7205 267.674,-36.1043"/>
<polygon fill="none" stroke="#880000" points="234.462,-62.3147 229.539,-71.6966 239.238,-67.4321 234.462,-62.3147"/>
</g>
<!-- position -->
<g id="node2" class="node"><title>position</title>
<polygon fill="#ffee77" stroke="black" points="81.5,-108 16.5,-108 16.5,-72 81.5,-72 81.5,-108"/>
<text text-anchor="start" x="24.5" y="-88.2" font-family="consolas" font-weight="bold" font-size="11.00">Position</text>
</g>
<!-- position&#45;&gt;player -->
<g id="edge2" class="edge"><title>position&#45;&gt;player</title>
<path fill="none" stroke="black" d="M76.0153,-64.7555C86.5336,-55.316 98.3401,-44.7205 107.941,-36.1043"/>
<polygon fill="none" stroke="black" points="73.3857,-62.4126 68.2809,-71.6966 78.061,-67.6224 73.3857,-62.4126"/>
</g>
<!-- position&#45;&gt;monster -->
<g id="edge5" class="edge"><title>position&#45;&gt;monster</title>
<path fill="none" stroke="#000000" stroke-opacity="0.309804" d="M49.781,-61.6651C50.027,-53.0537 50.2917,-43.7913 50.5113,-36.1043"/>
<polygon fill="none" stroke="#000000" stroke-opacity="0.309804" points="46.2815,-61.6007 49.4944,-71.6966 53.2786,-61.8007 46.2815,-61.6007"/>
</g>
<!-- input -->
<g id="node3" class="node"><title>input</title>
<polygon fill="#ffee77" stroke="black" points="154,-108 100,-108 100,-72 154,-72 154,-108"/>
<text text-anchor="start" x="111.5" y="-88.2" font-family="consolas" font-weight="bold" font-size="11.00">Input</text>
</g>
<!-- input&#45;&gt;player -->
<g id="edge3" class="edge"><title>input&#45;&gt;player</title>
<path fill="none" stroke="black" d="M127,-61.6651C127,-53.0537 127,-43.7913 127,-36.1043"/>
<polygon fill="none" stroke="black" points="123.5,-61.6966 127,-71.6966 130.5,-61.6967 123.5,-61.6966"/>
</g>
<!-- input&#45;&gt;speech_bubble -->
<g id="edge7" class="edge"><title>input&#45;&gt;speech_bubble</title>
<path fill="none" stroke="#000000" stroke-opacity="0.309804" d="M154.015,-64.7555C164.534,-55.316 176.34,-44.7205 185.941,-36.1043"/>
<polygon fill="none" stroke="#000000" stroke-opacity="0.309804" points="151.386,-62.4126 146.281,-71.6966 156.061,-67.6224 151.386,-62.4126"/>
</g>
<!-- bounds -->
<g id="node4" class="node"><title>bounds</title>
<polygon fill="#ffee77" stroke="black" points="322,-108 268,-108 268,-72 322,-72 322,-108"/>
<text text-anchor="start" x="276.5" y="-88.2" font-family="consolas" font-weight="bold" font-size="11.00">Bounds</text>
</g>
<!-- bounds&#45;&gt;map -->
<g id="edge9" class="edge"><title>bounds&#45;&gt;map</title>
<path fill="none" stroke="#880000" d="M291.486,-61.6651C290.378,-53.0537 289.187,-43.7913 288.199,-36.1043"/>
<polygon fill="none" stroke="#880000" points="288.029,-62.2246 292.775,-71.6966 294.971,-61.3319 288.029,-62.2246"/>
</g>
</g>
</svg>
