<?xml version="1.0" encoding="UTF-8" standalone="no"?>
<!DOCTYPE svg PUBLIC "-//W3C//DTD SVG 1.1//EN"
 "http://www.w3.org/Graphics/SVG/1.1/DTD/svg11.dtd">
<!-- Generated by graphviz version 2.38.0 (20140413.2041)
 -->
<!-- Title: World Pages: 1 -->
<svg width="750pt" height="383pt"
 viewBox="0.00 0.00 750.00 383.00" xmlns="http://www.w3.org/2000/svg" xmlns:xlink="http://www.w3.org/1999/xlink">
<g id="graph0" class="graph" transform="scale(1 1) rotate(0) translate(4 379)">
<title>World</title>
<g id="clust1" class="cluster"><title>cluster_Entities</title>
<polygon fill="#f5f5f5" stroke="black" points="8,-8 8,-367 734,-367 734,-8 8,-8"/>
<text text-anchor="start" x="348" y="-351.2" font-family="consolas" font-weight="bold" font-size="16.00">World</text>
</g>
<g id="clust6" class="cluster"><title>cluster_Map</title>
<polygon fill="#f5f5f5" stroke="black" stroke-dasharray="1,5" points="602,-16 602,-305 726,-305 726,-16 602,-16"/>
<text text-anchor="start" x="610" y="-292.4" font-family="consolas" font-weight="bold" font-size="12.00">Map</text>
</g>
<g id="clust5" class="cluster"><title>cluster_SpeechBubble</title>
<polygon fill="#f5f5f5" stroke="black" stroke-dasharray="1,5" points="470,-16 470,-305 594,-305 594,-16 470,-16"/>
<text text-anchor="start" x="478" y="-292.4" font-family="consolas" font-weight="bold" font-size="12.00">Speech Bubble</text>
</g>
<g id="clust4" class="cluster"><title>cluster_Monster</title>
<polygon fill="#f5f5f5" stroke="black" stroke-dasharray="1,5" points="338,-16 338,-305 462,-305 462,-16 338,-16"/>
<text text-anchor="start" x="346" y="-292.4" font-family="consolas" font-weight="bold" font-size="12.00">Monster</text>
</g>
<g id="clust3" class="cluster"><title>cluster_Player</title>
<polygon fill="#f5f5f5" stroke="black" stroke-dasharray="1,5" points="206,-16 206,-305 330,-305 330,-16 206,-16"/>
<text text-anchor="start" x="214" y="-292.4" font-family="consolas" font-weight="bold" font-size="12.00">Player</text>
</g>
<g id="clust2" class="cluster"><title>cluster_Storages</title>
<polygon fill="#f5f5f5" stroke="none" points="16,-16 16,-284 198,-284 198,-16 16,-16"/>
</g>
<!-- storage_0 -->
<g id="node1" class="node"><title>storage_0</title>
<polygon fill="none" stroke="black" stroke-width="0" points="190,-276 24,-276 24,-240 190,-240 190,-276"/>
<text text-anchor="start" x="59.5" y="-255.6" font-family="consolas" font-weight="bold" font-size="13.00">Render Storage</text>
</g>
<!-- storage_1 -->
<g id="node2" class="node"><title>storage_1</title>
<polygon fill="none" stroke="black" stroke-width="0" points="190,-204 24,-204 24,-168 190,-168 190,-204"/>
<text text-anchor="start" x="52.5" y="-183.6" font-family="consolas" font-weight="bold" font-size="13.00">Position Storage</text>
</g>
<!-- storage_0&#45;&gt;storage_1 -->
<!-- storage_2 -->
<g id="node3" class="node"><title>storage_2</title>
<polygon fill="none" stroke="black" stroke-width="0" points="190,-132 24,-132 24,-96 190,-96 190,-132"/>
<text text-anchor="start" x="63" y="-111.6" font-family="consolas" font-weight="bold" font-size="13.00">Input Storage</text>
</g>
<!-- storage_1&#45;&gt;storage_2 -->
<!-- storage_3 -->
<g id="node4" class="node"><title>storage_3</title>
<polygon fill="none" stroke="black" stroke-width="0" points="190,-60 24,-60 24,-24 190,-24 190,-60"/>
<text text-anchor="start" x="59.5" y="-39.6" font-family="consolas" font-weight="bold" font-size="13.00">Bounds Storage</text>
</g>
<!-- storage_2&#45;&gt;storage_3 -->
<!-- player_render -->
<g id="node5" class="node"><title>player_render</title>
<polygon fill="#bbddff" stroke="black" points="322,-276 214,-276 214,-240 322,-240 322,-276"/>
<text text-anchor="middle" x="268" y="-255.2" font-family="consolas" font-size="11.00">Render</text>
</g>
<!-- player_position -->
<g id="node6" class="node"><title>player_position</title>
<polygon fill="#bbddff" stroke="black" points="322,-204 214,-204 214,-168 322,-168 322,-204"/>
<text text-anchor="middle" x="268" y="-183.2" font-family="consolas" font-size="11.00">Position</text>
</g>
<!-- player_render&#45;&gt;player_position -->
<!-- player_input -->
<g id="node7" class="node"><title>player_input</title>
<polygon fill="#bbddff" stroke="black" points="322,-132 214,-132 214,-96 322,-96 322,-132"/>
<text text-anchor="middle" x="268" y="-111.2" font-family="consolas" font-size="11.00">Input</text>
</g>
<!-- player_position&#45;&gt;player_input -->
<!-- player_0 -->
<g id="node8" class="node"><title>player_0</title>
<polygon fill="none" stroke="black" stroke-dasharray="5,2" points="322,-60 214,-60 214,-24 322,-24 322,-60"/>
</g>
<!-- player_input&#45;&gt;player_0 -->
<!-- monster_render -->
<g id="node9" class="node"><title>monster_render</title>
<polygon fill="#bbddff" stroke="black" points="454,-276 346,-276 346,-240 454,-240 454,-276"/>
<text text-anchor="middle" x="400" y="-255.2" font-family="consolas" font-size="11.00">Render</text>
</g>
<!-- monster_position -->
<g id="node10" class="node"><title>monster_position</title>
<polygon fill="#bbddff" stroke="black" points="454,-204 346,-204 346,-168 454,-168 454,-204"/>
<text text-anchor="middle" x="400" y="-183.2" font-family="consolas" font-size="11.00">Position</text>
</g>
<!-- monster_render&#45;&gt;monster_position -->
<!-- monster_0 -->
<g id="node11" class="node"><title>monster_0</title>
<polygon fill="none" stroke="black" stroke-dasharray="5,2" points="454,-132 346,-132 346,-96 454,-96 454,-132"/>
</g>
<!-- monster_position&#45;&gt;monster_0 -->
<!-- monster_1 -->
<g id="node12" class="node"><title>monster_1</title>
<polygon fill="none" stroke="black" stroke-dasharray="5,2" points="454,-60 346,-60 346,-24 454,-24 454,-60"/>
</g>
<!-- monster_0&#45;&gt;monster_1 -->
<!-- speech_bubble_render -->
<g id="node13" class="node"><title>speech_bubble_render</title>
<polygon fill="#bbddff" stroke="black" points="586,-276 478,-276 478,-240 586,-240 586,-276"/>
<text text-anchor="middle" x="532" y="-255.2" font-family="consolas" font-size="11.00">Render</text>
</g>
<!-- speech_bubble_0 -->
<g id="node14" class="node"><title>speech_bubble_0</title>
<polygon fill="none" stroke="black" stroke-dasharray="5,2" points="586,-204 478,-204 478,-168 586,-168 586,-204"/>
</g>
<!-- speech_bubble_render&#45;&gt;speech_bubble_0 -->
<!-- speech_bubble_input -->
<g id="node15" class="node"><title>speech_bubble_input</title>
<polygon fill="#bbddff" stroke="black" points="586,-132 478,-132 478,-96 586,-96 586,-132"/>
<text text-anchor="middle" x="532" y="-111.2" font-family="consolas" font-size="11.00">Input</text>
</g>
<!-- speech_bubble_0&#45;&gt;speech_bubble_input -->
<!-- speech_bubble_1 -->
<g id="node16" class="node"><title>speech_bubble_1</title>
<polygon fill="none" stroke="black" stroke-dasharray="5,2" points="586,-60 478,-60 478,-24 586,-24 586,-60"/>
</g>
<!-- speech_bubble_input&#45;&gt;speech_bubble_1 -->
<!-- map_render -->
<g id="node17" class="node"><title>map_render</title>
<polygon fill="#bbddff" stroke="black" points="718,-276 610,-276 610,-240 718,-240 718,-276"/>
<text text-anchor="middle" x="664" y="-255.2" font-family="consolas" font-size="11.00">Render</text>
</g>
<!-- map_0 -->
<g id="node18" class="node"><title>map_0</title>
<polygon fill="none" stroke="black" stroke-dasharray="5,2" points="718,-204 610,-204 610,-168 718,-168 718,-204"/>
</g>
<!-- map_render&#45;&gt;map_0 -->
<!-- map_1 -->
<g id="node19" class="node"><title>map_1</title>
<polygon fill="none" stroke="black" stroke-dasharray="5,2" points="718,-132 610,-132 610,-96 718,-96 718,-132"/>
</g>
<!-- map_0&#45;&gt;map_1 -->
<!-- map_bounds -->
<g id="node20" class="node"><title>map_bounds</title>
<polygon fill="#bbddff" stroke="black" points="718,-60 610,-60 610,-24 718,-24 718,-60"/>
<text text-anchor="middle" x="664" y="-39.2" font-family="consolas" font-size="11.00">Bounds</text>
</g>
<!-- map_1&#45;&gt;map_bounds -->
<!-- top -->
<!-- top&#45;&gt;storage_0 -->
<!-- top&#45;&gt;player_render -->
<!-- top&#45;&gt;monster_render -->
<!-- top&#45;&gt;speech_bubble_render -->
<!-- top&#45;&gt;map_render -->
</g>
</svg>
