<?xml version="1.0" encoding="UTF-8" standalone="no"?>
<!DOCTYPE svg PUBLIC "-//W3C//DTD SVG 1.1//EN"
 "http://www.w3.org/Graphics/SVG/1.1/DTD/svg11.dtd">
<!-- Generated by graphviz version 2.38.0 (20140413.2041)
 -->
<!-- Title: VecAllStorage Pages: 1 -->
<svg width="368pt" height="348pt"
 viewBox="0.00 0.00 368.00 348.00" xmlns="http://www.w3.org/2000/svg" xmlns:xlink="http://www.w3.org/1999/xlink">
<g id="graph0" class="graph" transform="scale(1 1) rotate(0) translate(4 344)">
<title>VecAllStorage</title>
<text text-anchor="start" x="136" y="-324.2" font-family="Arial" font-weight="bold" font-size="16.00">VecStorage</text>
<!-- renderables -->
<g id="node1" class="node"><title>renderables</title>
<polygon fill="#aaccff" stroke="black" points="360,-300 0,-300 0,-252 360,-252 360,-300"/>
<text text-anchor="start" x="15" y="-284.2" font-family="consolas" font-weight="bold" font-size="11.00">Renderables</text>
<text text-anchor="start" x="15" y="-264.2" font-family="consolas" font-size="11.00">data: </text>
<polygon fill="#eecc99" stroke="none" points="86,-258 86,-276 117,-276 117,-258 86,-258"/>
<polygon fill="none" stroke="black" points="86,-258 86,-276 117,-276 117,-258 86,-258"/>
<text text-anchor="start" x="89" y="-264.2" font-family="consolas" font-size="11.00"> R0 </text>
<polygon fill="#eecc99" stroke="none" points="119,-258 119,-276 150,-276 150,-258 119,-258"/>
<polygon fill="none" stroke="black" points="119,-258 119,-276 150,-276 150,-258 119,-258"/>
<text text-anchor="start" x="122" y="-264.2" font-family="consolas" font-size="11.00"> R1 </text>
<polygon fill="#eecc99" stroke="none" points="152,-258 152,-276 183,-276 183,-258 152,-258"/>
<polygon fill="none" stroke="black" points="152,-258 152,-276 183,-276 183,-258 152,-258"/>
<text text-anchor="start" x="155" y="-264.2" font-family="consolas" font-size="11.00"> R2 </text>
<polygon fill="#eecc99" stroke="none" points="185,-258 185,-276 216,-276 216,-258 185,-258"/>
<polygon fill="none" stroke="black" points="185,-258 185,-276 216,-276 216,-258 185,-258"/>
<text text-anchor="start" x="188" y="-264.2" font-family="consolas" font-size="11.00"> R3 </text>
<polygon fill="#dddddd" stroke="none" points="218,-258 218,-276 249,-276 249,-258 218,-258"/>
<polygon fill="none" stroke="black" stroke-dasharray="1,5" points="218,-258 218,-276 249,-276 249,-258 218,-258"/>
<text text-anchor="start" x="221" y="-264.2" font-family="consolas" font-size="11.00"> &#160;&#160;&#160;</text>
<polygon fill="#dddddd" stroke="none" stroke-dasharray="1,5" points="251,-258 251,-276 282,-276 282,-258 251,-258"/>
<polygon fill="none" stroke="black" stroke-dasharray="1,5" points="251,-258 251,-276 282,-276 282,-258 251,-258"/>
<text text-anchor="start" x="254" y="-264.2" font-family="consolas" font-size="11.00"> &#160;&#160;&#160;</text>
<polygon fill="#dddddd" stroke="none" stroke-dasharray="1,5" points="284,-258 284,-276 315,-276 315,-258 284,-258"/>
<polygon fill="none" stroke="black" stroke-dasharray="1,5" points="284,-258 284,-276 315,-276 315,-258 284,-258"/>
<text text-anchor="start" x="287" y="-264.2" font-family="consolas" font-size="11.00"> &#160;&#160;&#160;</text>
<polygon fill="#dddddd" stroke="none" stroke-dasharray="1,5" points="317,-258 317,-276 348,-276 348,-258 317,-258"/>
<polygon fill="none" stroke="black" stroke-dasharray="1,5" points="317,-258 317,-276 348,-276 348,-258 317,-258"/>
<text text-anchor="start" x="320" y="-264.2" font-family="consolas" font-size="11.00"> &#160;&#160;&#160;</text>
</g>
<!-- positions -->
<g id="node2" class="node"><title>positions</title>
<polygon fill="#aaccff" stroke="black" points="360,-216 0,-216 0,-168 360,-168 360,-216"/>
<text text-anchor="start" x="15" y="-200.2" font-family="consolas" font-weight="bold" font-size="11.00">Positions &#160;</text>
<text text-anchor="start" x="15" y="-180.2" font-family="consolas" font-size="11.00">data: </text>
<polygon fill="#eecc99" stroke="none" points="86,-174 86,-192 117,-192 117,-174 86,-174"/>
<polygon fill="none" stroke="black" points="86,-174 86,-192 117,-192 117,-174 86,-174"/>
<text text-anchor="start" x="89" y="-180.2" font-family="consolas" font-size="11.00"> P0 </text>
<polygon fill="#eecc99" stroke="none" points="119,-174 119,-192 150,-192 150,-174 119,-174"/>
<polygon fill="none" stroke="black" points="119,-174 119,-192 150,-192 150,-174 119,-174"/>
<text text-anchor="start" x="122" y="-180.2" font-family="consolas" font-size="11.00"> P1 </text>
<polygon fill="#eecc99" stroke="none" points="152,-174 152,-192 183,-192 183,-174 152,-174"/>
<polygon fill="none" stroke="black" stroke-dasharray="5,2" points="152,-174 152,-192 183,-192 183,-174 152,-174"/>
<text text-anchor="start" x="155" y="-180.2" font-family="consolas" font-size="11.00"> &#160;&#160;&#160;</text>
<polygon fill="#eecc99" stroke="none" stroke-dasharray="5,2" points="185,-174 185,-192 216,-192 216,-174 185,-174"/>
<polygon fill="none" stroke="black" stroke-dasharray="5,2" points="185,-174 185,-192 216,-192 216,-174 185,-174"/>
<text text-anchor="start" x="188" y="-180.2" font-family="consolas" font-size="11.00"> &#160;&#160;&#160;</text>
<polygon fill="#dddddd" stroke="none" stroke-dasharray="5,2" points="218,-174 218,-192 249,-192 249,-174 218,-174"/>
<polygon fill="none" stroke="black" stroke-dasharray="1,5" points="218,-174 218,-192 249,-192 249,-174 218,-174"/>
<text text-anchor="start" x="221" y="-180.2" font-family="consolas" font-size="11.00"> &#160;&#160;&#160;</text>
<polygon fill="#dddddd" stroke="none" stroke-dasharray="1,5" points="251,-174 251,-192 282,-192 282,-174 251,-174"/>
<polygon fill="none" stroke="black" stroke-dasharray="1,5" points="251,-174 251,-192 282,-192 282,-174 251,-174"/>
<text text-anchor="start" x="254" y="-180.2" font-family="consolas" font-size="11.00"> &#160;&#160;&#160;</text>
<polygon fill="#dddddd" stroke="none" stroke-dasharray="1,5" points="284,-174 284,-192 315,-192 315,-174 284,-174"/>
<polygon fill="none" stroke="black" stroke-dasharray="1,5" points="284,-174 284,-192 315,-192 315,-174 284,-174"/>
<text text-anchor="start" x="287" y="-180.2" font-family="consolas" font-size="11.00"> &#160;&#160;&#160;</text>
<polygon fill="#dddddd" stroke="none" stroke-dasharray="1,5" points="317,-174 317,-192 348,-192 348,-174 317,-174"/>
<polygon fill="none" stroke="black" stroke-dasharray="1,5" points="317,-174 317,-192 348,-192 348,-174 317,-174"/>
<text text-anchor="start" x="320" y="-180.2" font-family="consolas" font-size="11.00"> &#160;&#160;&#160;</text>
</g>
<!-- renderables&#45;&gt;positions -->
<!-- inputs -->
<g id="node3" class="node"><title>inputs</title>
<polygon fill="#aaccff" stroke="black" points="360,-132 0,-132 0,-84 360,-84 360,-132"/>
<text text-anchor="start" x="15" y="-116.2" font-family="consolas" font-weight="bold" font-size="11.00">Inputs &#160;&#160;&#160;&#160;</text>
<text text-anchor="start" x="15" y="-96.2" font-family="consolas" font-size="11.00">data: </text>
<polygon fill="#eecc99" stroke="none" points="86,-90 86,-108 117,-108 117,-90 86,-90"/>
<polygon fill="none" stroke="black" points="86,-90 86,-108 117,-108 117,-90 86,-90"/>
<text text-anchor="start" x="89" y="-96.2" font-family="consolas" font-size="11.00"> I0 </text>
<polygon fill="#eecc99" stroke="none" points="119,-90 119,-108 150,-108 150,-90 119,-90"/>
<polygon fill="none" stroke="black" stroke-dasharray="5,2" points="119,-90 119,-108 150,-108 150,-90 119,-90"/>
<text text-anchor="start" x="122" y="-96.2" font-family="consolas" font-size="11.00"> &#160;&#160;&#160;</text>
<polygon fill="#eecc99" stroke="none" stroke-dasharray="5,2" points="152,-90 152,-108 183,-108 183,-90 152,-90"/>
<polygon fill="none" stroke="black" points="152,-90 152,-108 183,-108 183,-90 152,-90"/>
<text text-anchor="start" x="155" y="-96.2" font-family="consolas" font-size="11.00"> I2 </text>
<polygon fill="#eecc99" stroke="none" points="185,-90 185,-108 216,-108 216,-90 185,-90"/>
<polygon fill="none" stroke="black" stroke-dasharray="5,2" points="185,-90 185,-108 216,-108 216,-90 185,-90"/>
<text text-anchor="start" x="188" y="-96.2" font-family="consolas" font-size="11.00"> &#160;&#160;&#160;</text>
<polygon fill="#dddddd" stroke="none" stroke-dasharray="5,2" points="218,-90 218,-108 249,-108 249,-90 218,-90"/>
<polygon fill="none" stroke="black" stroke-dasharray="1,5" points="218,-90 218,-108 249,-108 249,-90 218,-90"/>
<text text-anchor="start" x="221" y="-96.2" font-family="consolas" font-size="11.00"> &#160;&#160;&#160;</text>
<polygon fill="#dddddd" stroke="none" stroke-dasharray="1,5" points="251,-90 251,-108 282,-108 282,-90 251,-90"/>
<polygon fill="none" stroke="black" stroke-dasharray="1,5" points="251,-90 251,-108 282,-108 282,-90 251,-90"/>
<text text-anchor="start" x="254" y="-96.2" font-family="consolas" font-size="11.00"> &#160;&#160;&#160;</text>
<polygon fill="#dddddd" stroke="none" stroke-dasharray="1,5" points="284,-90 284,-108 315,-108 315,-90 284,-90"/>
<polygon fill="none" stroke="black" stroke-dasharray="1,5" points="284,-90 284,-108 315,-108 315,-90 284,-90"/>
<text text-anchor="start" x="287" y="-96.2" font-family="consolas" font-size="11.00"> &#160;&#160;&#160;</text>
<polygon fill="#dddddd" stroke="none" stroke-dasharray="1,5" points="317,-90 317,-108 348,-108 348,-90 317,-90"/>
<polygon fill="none" stroke="black" stroke-dasharray="1,5" points="317,-90 317,-108 348,-108 348,-90 317,-90"/>
<text text-anchor="start" x="320" y="-96.2" font-family="consolas" font-size="11.00"> &#160;&#160;&#160;</text>
</g>
<!-- positions&#45;&gt;inputs -->
<!-- bounds -->
<g id="node4" class="node"><title>bounds</title>
<polygon fill="#aaccff" stroke="black" points="360,-48 0,-48 0,-0 360,-0 360,-48"/>
<text text-anchor="start" x="15" y="-32.2" font-family="consolas" font-weight="bold" font-size="11.00">Bounds &#160;&#160;&#160;&#160;</text>
<text text-anchor="start" x="15" y="-12.2" font-family="consolas" font-size="11.00">data: </text>
<polygon fill="#eecc99" stroke="none" points="86,-6 86,-24 117,-24 117,-6 86,-6"/>
<polygon fill="none" stroke="black" stroke-dasharray="5,2" points="86,-6 86,-24 117,-24 117,-6 86,-6"/>
<text text-anchor="start" x="89" y="-12.2" font-family="consolas" font-size="11.00"> &#160;&#160;&#160;</text>
<polygon fill="#eecc99" stroke="none" stroke-dasharray="5,2" points="119,-6 119,-24 150,-24 150,-6 119,-6"/>
<polygon fill="none" stroke="black" stroke-dasharray="5,2" points="119,-6 119,-24 150,-24 150,-6 119,-6"/>
<text text-anchor="start" x="122" y="-12.2" font-family="consolas" font-size="11.00"> &#160;&#160;&#160;</text>
<polygon fill="#eecc99" stroke="none" stroke-dasharray="5,2" points="152,-6 152,-24 183,-24 183,-6 152,-6"/>
<polygon fill="none" stroke="black" stroke-dasharray="5,2" points="152,-6 152,-24 183,-24 183,-6 152,-6"/>
<text text-anchor="start" x="155" y="-12.2" font-family="consolas" font-size="11.00"> &#160;&#160;&#160;</text>
<polygon fill="#eecc99" stroke="none" stroke-dasharray="5,2" points="185,-6 185,-24 216,-24 216,-6 185,-6"/>
<polygon fill="none" stroke="black" points="185,-6 185,-24 216,-24 216,-6 185,-6"/>
<text text-anchor="start" x="188" y="-12.2" font-family="consolas" font-size="11.00"> B4 </text>
<polygon fill="#dddddd" stroke="none" points="218,-6 218,-24 249,-24 249,-6 218,-6"/>
<polygon fill="none" stroke="black" stroke-dasharray="1,5" points="218,-6 218,-24 249,-24 249,-6 218,-6"/>
<text text-anchor="start" x="221" y="-12.2" font-family="consolas" font-size="11.00"> &#160;&#160;&#160;</text>
<polygon fill="#dddddd" stroke="none" stroke-dasharray="1,5" points="251,-6 251,-24 282,-24 282,-6 251,-6"/>
<polygon fill="none" stroke="black" stroke-dasharray="1,5" points="251,-6 251,-24 282,-24 282,-6 251,-6"/>
<text text-anchor="start" x="254" y="-12.2" font-family="consolas" font-size="11.00"> &#160;&#160;&#160;</text>
<polygon fill="#dddddd" stroke="none" stroke-dasharray="1,5" points="284,-6 284,-24 315,-24 315,-6 284,-6"/>
<polygon fill="none" stroke="black" stroke-dasharray="1,5" points="284,-6 284,-24 315,-24 315,-6 284,-6"/>
<text text-anchor="start" x="287" y="-12.2" font-family="consolas" font-size="11.00"> &#160;&#160;&#160;</text>
<polygon fill="#dddddd" stroke="none" stroke-dasharray="1,5" points="317,-6 317,-24 348,-24 348,-6 317,-6"/>
<polygon fill="none" stroke="black" stroke-dasharray="1,5" points="317,-6 317,-24 348,-24 348,-6 317,-6"/>
<text text-anchor="start" x="320" y="-12.2" font-family="consolas" font-size="11.00"> &#160;&#160;&#160;</text>
</g>
<!-- inputs&#45;&gt;bounds -->
</g>
</svg>
