<?xml version="1.0" encoding="UTF-8" standalone="no"?>
<!DOCTYPE svg PUBLIC "-//W3C//DTD SVG 1.1//EN"
 "http://www.w3.org/Graphics/SVG/1.1/DTD/svg11.dtd">
<!-- Generated by graphviz version 2.38.0 (20140413.2041)
 -->
<!-- Title: DenseVecStorage Pages: 1 -->
<svg width="368pt" height="220pt"
 viewBox="0.00 0.00 368.00 220.00" xmlns="http://www.w3.org/2000/svg" xmlns:xlink="http://www.w3.org/1999/xlink">
<g id="graph0" class="graph" transform="scale(1 1) rotate(0) translate(4 216)">
<title>DenseVecStorage</title>
<text text-anchor="start" x="112" y="-196.2" font-family="Arial" font-weight="bold" font-size="16.00">DenseVecStorage</text>
<!-- positions -->
<g id="node1" class="node"><title>positions</title>
<polygon fill="#aaccff" stroke="black" points="360,-172 0,-172 0,-104 360,-104 360,-172"/>
<text text-anchor="start" x="15" y="-156.2" font-family="consolas" font-weight="bold" font-size="11.00">Positions &#160;</text>
<text text-anchor="start" x="15" y="-136.2" font-family="consolas" font-size="11.00">lookup: </text>
<polygon fill="#eecc99" stroke="none" points="86,-130 86,-148 101,-148 101,-130 86,-130"/>
<polygon fill="none" stroke="black" points="86,-130 86,-148 101,-148 101,-130 86,-130"/>
<text text-anchor="start" x="90" y="-136.2" font-family="consolas" font-size="11.00">0</text>
<polygon fill="#eecc99" stroke="none" points="103,-130 103,-148 119,-148 119,-130 103,-130"/>
<polygon fill="none" stroke="black" points="103,-130 103,-148 119,-148 119,-130 103,-130"/>
<text text-anchor="start" x="107.5" y="-136.2" font-family="consolas" font-size="11.00">1</text>
<polygon fill="#eecc99" stroke="none" points="121,-130 121,-148 136,-148 136,-130 121,-130"/>
<polygon fill="none" stroke="black" stroke-dasharray="5,2" points="121,-130 121,-148 136,-148 136,-130 121,-130"/>
<polygon fill="#eecc99" stroke="none" stroke-dasharray="5,2" points="138,-130 138,-148 154,-148 154,-130 138,-130"/>
<polygon fill="none" stroke="black" stroke-dasharray="5,2" points="138,-130 138,-148 154,-148 154,-130 138,-130"/>
<polygon fill="#dddddd" stroke="none" stroke-dasharray="5,2" points="156,-130 156,-148 171,-148 171,-130 156,-130"/>
<polygon fill="none" stroke="black" stroke-dasharray="1,5" points="156,-130 156,-148 171,-148 171,-130 156,-130"/>
<polygon fill="#dddddd" stroke="none" stroke-dasharray="1,5" points="173,-130 173,-148 189,-148 189,-130 173,-130"/>
<polygon fill="none" stroke="black" stroke-dasharray="1,5" points="173,-130 173,-148 189,-148 189,-130 173,-130"/>
<polygon fill="#dddddd" stroke="none" stroke-dasharray="1,5" points="191,-130 191,-148 206,-148 206,-130 191,-130"/>
<polygon fill="none" stroke="black" stroke-dasharray="1,5" points="191,-130 191,-148 206,-148 206,-130 191,-130"/>
<polygon fill="#dddddd" stroke="none" stroke-dasharray="1,5" points="208,-130 208,-148 224,-148 224,-130 208,-130"/>
<polygon fill="none" stroke="black" stroke-dasharray="1,5" points="208,-130 208,-148 224,-148 224,-130 208,-130"/>
<text text-anchor="start" x="15" y="-116.2" font-family="consolas" font-size="11.00">data: </text>
<polygon fill="#eecc99" stroke="none" stroke-dasharray="1,5" points="86,-110 86,-128 119,-128 119,-110 86,-110"/>
<polygon fill="none" stroke="black" points="86,-110 86,-128 119,-128 119,-110 86,-110"/>
<text text-anchor="start" x="90" y="-116.2" font-family="consolas" font-size="11.00"> P0 </text>
<polygon fill="#eecc99" stroke="none" points="121,-110 121,-128 154,-128 154,-110 121,-110"/>
<polygon fill="none" stroke="black" points="121,-110 121,-128 154,-128 154,-110 121,-110"/>
<text text-anchor="start" x="125" y="-116.2" font-family="consolas" font-size="11.00"> P1 </text>
<polygon fill="#dddddd" stroke="none" points="156,-110 156,-128 189,-128 189,-110 156,-110"/>
<polygon fill="none" stroke="black" stroke-dasharray="1,5" points="156,-110 156,-128 189,-128 189,-110 156,-110"/>
<text text-anchor="start" x="160" y="-116.2" font-family="consolas" font-size="11.00"> &#160;&#160;&#160;</text>
<polygon fill="#dddddd" stroke="none" stroke-dasharray="1,5" points="191,-110 191,-128 224,-128 224,-110 191,-110"/>
<polygon fill="none" stroke="black" stroke-dasharray="1,5" points="191,-110 191,-128 224,-128 224,-110 191,-110"/>
<text text-anchor="start" x="195" y="-116.2" font-family="consolas" font-size="11.00"> &#160;&#160;&#160;</text>
</g>
<!-- inputs -->
<g id="node2" class="node"><title>inputs</title>
<polygon fill="#aaccff" stroke="black" points="360,-68 0,-68 0,-0 360,-0 360,-68"/>
<text text-anchor="start" x="15" y="-52.2" font-family="consolas" font-weight="bold" font-size="11.00">Inputs &#160;&#160;&#160;&#160;</text>
<text text-anchor="start" x="15" y="-32.2" font-family="consolas" font-size="11.00">lookup: </text>
<polygon fill="#eecc99" stroke="none" points="86,-26 86,-44 105,-44 105,-26 86,-26"/>
<polygon fill="none" stroke="black" points="86,-26 86,-44 105,-44 105,-26 86,-26"/>
<text text-anchor="start" x="92" y="-32.2" font-family="consolas" font-size="11.00">0</text>
<polygon fill="#eecc99" stroke="none" points="107,-26 107,-44 119,-44 119,-26 107,-26"/>
<polygon fill="none" stroke="black" stroke-dasharray="5,2" points="107,-26 107,-44 119,-44 119,-26 107,-26"/>
<polygon fill="#eecc99" stroke="none" stroke-dasharray="5,2" points="121,-26 121,-44 140,-44 140,-26 121,-26"/>
<polygon fill="none" stroke="black" points="121,-26 121,-44 140,-44 140,-26 121,-26"/>
<text text-anchor="start" x="127" y="-32.2" font-family="consolas" font-size="11.00">1</text>
<polygon fill="#eecc99" stroke="none" points="142,-26 142,-44 154,-44 154,-26 142,-26"/>
<polygon fill="none" stroke="black" stroke-dasharray="5,2" points="142,-26 142,-44 154,-44 154,-26 142,-26"/>
<polygon fill="#dddddd" stroke="none" stroke-dasharray="5,2" points="156,-26 156,-44 171,-44 171,-26 156,-26"/>
<polygon fill="none" stroke="black" stroke-dasharray="1,5" points="156,-26 156,-44 171,-44 171,-26 156,-26"/>
<polygon fill="#dddddd" stroke="none" stroke-dasharray="1,5" points="173,-26 173,-44 189,-44 189,-26 173,-26"/>
<polygon fill="none" stroke="black" stroke-dasharray="1,5" points="173,-26 173,-44 189,-44 189,-26 173,-26"/>
<polygon fill="#dddddd" stroke="none" stroke-dasharray="1,5" points="191,-26 191,-44 206,-44 206,-26 191,-26"/>
<polygon fill="none" stroke="black" stroke-dasharray="1,5" points="191,-26 191,-44 206,-44 206,-26 191,-26"/>
<polygon fill="#dddddd" stroke="none" stroke-dasharray="1,5" points="208,-26 208,-44 224,-44 224,-26 208,-26"/>
<polygon fill="none" stroke="black" stroke-dasharray="1,5" points="208,-26 208,-44 224,-44 224,-26 208,-26"/>
<text text-anchor="start" x="15" y="-12.2" font-family="consolas" font-size="11.00">data: </text>
<polygon fill="#eecc99" stroke="none" stroke-dasharray="1,5" points="86,-6 86,-24 119,-24 119,-6 86,-6"/>
<polygon fill="none" stroke="black" points="86,-6 86,-24 119,-24 119,-6 86,-6"/>
<text text-anchor="start" x="90" y="-12.2" font-family="consolas" font-size="11.00"> I0 </text>
<polygon fill="#eecc99" stroke="none" points="121,-6 121,-24 154,-24 154,-6 121,-6"/>
<polygon fill="none" stroke="black" points="121,-6 121,-24 154,-24 154,-6 121,-6"/>
<text text-anchor="start" x="125" y="-12.2" font-family="consolas" font-size="11.00"> I2 </text>
<polygon fill="#dddddd" stroke="none" points="156,-6 156,-24 189,-24 189,-6 156,-6"/>
<polygon fill="none" stroke="black" stroke-dasharray="1,5" points="156,-6 156,-24 189,-24 189,-6 156,-6"/>
<text text-anchor="start" x="160" y="-12.2" font-family="consolas" font-size="11.00"> &#160;&#160;&#160;</text>
<polygon fill="#dddddd" stroke="none" stroke-dasharray="1,5" points="191,-6 191,-24 224,-24 224,-6 191,-6"/>
<polygon fill="none" stroke="black" stroke-dasharray="1,5" points="191,-6 191,-24 224,-24 224,-6 191,-6"/>
<text text-anchor="start" x="195" y="-12.2" font-family="consolas" font-size="11.00"> &#160;&#160;&#160;</text>
</g>
<!-- positions&#45;&gt;inputs -->
</g>
</svg>
