<?xml version="1.0" encoding="UTF-8" standalone="no"?>
<!DOCTYPE svg PUBLIC "-//W3C//DTD SVG 1.1//EN"
 "http://www.w3.org/Graphics/SVG/1.1/DTD/svg11.dtd">
<!-- Generated by graphviz version 2.38.0 (20140413.2041)
 -->
<!-- Title: DenseVecStorage Pages: 1 -->
<svg width="369pt" height="268pt"
 viewBox="0.00 0.00 369.00 268.00" xmlns="http://www.w3.org/2000/svg" xmlns:xlink="http://www.w3.org/1999/xlink">
<g id="graph0" class="graph" transform="scale(1 1) rotate(0) translate(4 264)">
<title>DenseVecStorage</title>
<text text-anchor="start" x="112.5" y="-244.2" font-family="Arial" font-weight="bold" font-size="16.00">DenseVecStorage</text>
<!-- positions -->
<g id="node1" class="node"><title>positions</title>
<polygon fill="#aaccff" stroke="black" points="360.5,-220 0.5,-220 0.5,-152 360.5,-152 360.5,-220"/>
<text text-anchor="start" x="15.5" y="-204.2" font-family="consolas" font-weight="bold" font-size="11.00">Positions &#160;</text>
<text text-anchor="start" x="15.5" y="-184.2" font-family="consolas" font-size="11.00">lookup: </text>
<polygon fill="#eecc99" stroke="none" points="86.5,-178 86.5,-196 101.5,-196 101.5,-178 86.5,-178"/>
<polygon fill="none" stroke="black" points="86.5,-178 86.5,-196 101.5,-196 101.5,-178 86.5,-178"/>
<text text-anchor="start" x="90.5" y="-184.2" font-family="consolas" font-size="11.00">0</text>
<polygon fill="#eecc99" stroke="none" points="103.5,-178 103.5,-196 119.5,-196 119.5,-178 103.5,-178"/>
<polygon fill="none" stroke="black" points="103.5,-178 103.5,-196 119.5,-196 119.5,-178 103.5,-178"/>
<text text-anchor="start" x="108" y="-184.2" font-family="consolas" font-size="11.00">1</text>
<polygon fill="#eecc99" stroke="none" points="121.5,-178 121.5,-196 136.5,-196 136.5,-178 121.5,-178"/>
<polygon fill="none" stroke="black" stroke-dasharray="5,2" points="121.5,-178 121.5,-196 136.5,-196 136.5,-178 121.5,-178"/>
<polygon fill="#eecc99" stroke="none" stroke-dasharray="5,2" points="138.5,-178 138.5,-196 154.5,-196 154.5,-178 138.5,-178"/>
<polygon fill="none" stroke="black" stroke-dasharray="5,2" points="138.5,-178 138.5,-196 154.5,-196 154.5,-178 138.5,-178"/>
<polygon fill="#dddddd" stroke="none" stroke-dasharray="5,2" points="156.5,-178 156.5,-196 171.5,-196 171.5,-178 156.5,-178"/>
<polygon fill="none" stroke="black" stroke-dasharray="1,5" points="156.5,-178 156.5,-196 171.5,-196 171.5,-178 156.5,-178"/>
<polygon fill="#dddddd" stroke="none" stroke-dasharray="1,5" points="173.5,-178 173.5,-196 189.5,-196 189.5,-178 173.5,-178"/>
<polygon fill="none" stroke="black" stroke-dasharray="1,5" points="173.5,-178 173.5,-196 189.5,-196 189.5,-178 173.5,-178"/>
<polygon fill="#dddddd" stroke="none" stroke-dasharray="1,5" points="191.5,-178 191.5,-196 206.5,-196 206.5,-178 191.5,-178"/>
<polygon fill="none" stroke="black" stroke-dasharray="1,5" points="191.5,-178 191.5,-196 206.5,-196 206.5,-178 191.5,-178"/>
<polygon fill="#dddddd" stroke="none" stroke-dasharray="1,5" points="208.5,-178 208.5,-196 224.5,-196 224.5,-178 208.5,-178"/>
<polygon fill="none" stroke="black" stroke-dasharray="1,5" points="208.5,-178 208.5,-196 224.5,-196 224.5,-178 208.5,-178"/>
<text text-anchor="start" x="15.5" y="-164.2" font-family="consolas" font-size="11.00">data: </text>
<polygon fill="#eecc99" stroke="none" stroke-dasharray="1,5" points="86.5,-158 86.5,-176 119.5,-176 119.5,-158 86.5,-158"/>
<polygon fill="none" stroke="black" points="86.5,-158 86.5,-176 119.5,-176 119.5,-158 86.5,-158"/>
<text text-anchor="start" x="90.5" y="-164.2" font-family="consolas" font-size="11.00"> P0 </text>
<polygon fill="#eecc99" stroke="none" points="121.5,-158 121.5,-176 154.5,-176 154.5,-158 121.5,-158"/>
<polygon fill="none" stroke="black" points="121.5,-158 121.5,-176 154.5,-176 154.5,-158 121.5,-158"/>
<text text-anchor="start" x="125.5" y="-164.2" font-family="consolas" font-size="11.00"> P1 </text>
<polygon fill="#dddddd" stroke="none" points="156.5,-158 156.5,-176 189.5,-176 189.5,-158 156.5,-158"/>
<polygon fill="none" stroke="black" stroke-dasharray="1,5" points="156.5,-158 156.5,-176 189.5,-176 189.5,-158 156.5,-158"/>
<text text-anchor="start" x="160.5" y="-164.2" font-family="consolas" font-size="11.00"> &#160;&#160;&#160;</text>
<polygon fill="#dddddd" stroke="none" stroke-dasharray="1,5" points="191.5,-158 191.5,-176 224.5,-176 224.5,-158 191.5,-158"/>
<polygon fill="none" stroke="black" stroke-dasharray="1,5" points="191.5,-158 191.5,-176 224.5,-176 224.5,-158 191.5,-158"/>
<text text-anchor="start" x="195.5" y="-164.2" font-family="consolas" font-size="11.00"> &#160;&#160;&#160;</text>
</g>
<!-- velocities -->
<g id="node2" class="node"><title>velocities</title>
<polygon fill="#aaccff" stroke="black" points="361,-144 0,-144 0,-76 361,-76 361,-144"/>
<text text-anchor="start" x="12.5" y="-128.2" font-family="consolas" font-weight="bold" font-size="11.00">Velocities &#160;</text>
<text text-anchor="start" x="12.5" y="-108.2" font-family="consolas" font-size="11.00">lookup: </text>
<polygon fill="#eecc99" stroke="none" points="89.5,-102 89.5,-120 104.5,-120 104.5,-102 89.5,-102"/>
<polygon fill="none" stroke="black" points="89.5,-102 89.5,-120 104.5,-120 104.5,-102 89.5,-102"/>
<text text-anchor="start" x="93.5" y="-108.2" font-family="consolas" font-size="11.00">0</text>
<polygon fill="#eecc99" stroke="none" points="106.5,-102 106.5,-120 122.5,-120 122.5,-102 106.5,-102"/>
<polygon fill="none" stroke="black" points="106.5,-102 106.5,-120 122.5,-120 122.5,-102 106.5,-102"/>
<text text-anchor="start" x="111" y="-108.2" font-family="consolas" font-size="11.00">1</text>
<polygon fill="#eecc99" stroke="none" points="124.5,-102 124.5,-120 139.5,-120 139.5,-102 124.5,-102"/>
<polygon fill="none" stroke="black" stroke-dasharray="5,2" points="124.5,-102 124.5,-120 139.5,-120 139.5,-102 124.5,-102"/>
<polygon fill="#eecc99" stroke="none" stroke-dasharray="5,2" points="141.5,-102 141.5,-120 157.5,-120 157.5,-102 141.5,-102"/>
<polygon fill="none" stroke="black" stroke-dasharray="5,2" points="141.5,-102 141.5,-120 157.5,-120 157.5,-102 141.5,-102"/>
<polygon fill="#dddddd" stroke="none" stroke-dasharray="5,2" points="159.5,-102 159.5,-120 174.5,-120 174.5,-102 159.5,-102"/>
<polygon fill="none" stroke="black" stroke-dasharray="1,5" points="159.5,-102 159.5,-120 174.5,-120 174.5,-102 159.5,-102"/>
<polygon fill="#dddddd" stroke="none" stroke-dasharray="1,5" points="176.5,-102 176.5,-120 192.5,-120 192.5,-102 176.5,-102"/>
<polygon fill="none" stroke="black" stroke-dasharray="1,5" points="176.5,-102 176.5,-120 192.5,-120 192.5,-102 176.5,-102"/>
<polygon fill="#dddddd" stroke="none" stroke-dasharray="1,5" points="194.5,-102 194.5,-120 209.5,-120 209.5,-102 194.5,-102"/>
<polygon fill="none" stroke="black" stroke-dasharray="1,5" points="194.5,-102 194.5,-120 209.5,-120 209.5,-102 194.5,-102"/>
<polygon fill="#dddddd" stroke="none" stroke-dasharray="1,5" points="211.5,-102 211.5,-120 227.5,-120 227.5,-102 211.5,-102"/>
<polygon fill="none" stroke="black" stroke-dasharray="1,5" points="211.5,-102 211.5,-120 227.5,-120 227.5,-102 211.5,-102"/>
<text text-anchor="start" x="12.5" y="-88.2" font-family="consolas" font-size="11.00">data: </text>
<polygon fill="#eecc99" stroke="none" stroke-dasharray="1,5" points="89.5,-82 89.5,-100 122.5,-100 122.5,-82 89.5,-82"/>
<polygon fill="none" stroke="black" points="89.5,-82 89.5,-100 122.5,-100 122.5,-82 89.5,-82"/>
<text text-anchor="start" x="93.5" y="-88.2" font-family="consolas" font-size="11.00"> V0 </text>
<polygon fill="#eecc99" stroke="none" points="124.5,-82 124.5,-100 157.5,-100 157.5,-82 124.5,-82"/>
<polygon fill="none" stroke="black" points="124.5,-82 124.5,-100 157.5,-100 157.5,-82 124.5,-82"/>
<text text-anchor="start" x="128.5" y="-88.2" font-family="consolas" font-size="11.00"> V1 </text>
<polygon fill="#dddddd" stroke="none" points="159.5,-82 159.5,-100 192.5,-100 192.5,-82 159.5,-82"/>
<polygon fill="none" stroke="black" stroke-dasharray="1,5" points="159.5,-82 159.5,-100 192.5,-100 192.5,-82 159.5,-82"/>
<text text-anchor="start" x="163.5" y="-88.2" font-family="consolas" font-size="11.00"> &#160;&#160;&#160;</text>
<polygon fill="#dddddd" stroke="none" stroke-dasharray="1,5" points="194.5,-82 194.5,-100 227.5,-100 227.5,-82 194.5,-82"/>
<polygon fill="none" stroke="black" stroke-dasharray="1,5" points="194.5,-82 194.5,-100 227.5,-100 227.5,-82 194.5,-82"/>
<text text-anchor="start" x="198.5" y="-88.2" font-family="consolas" font-size="11.00"> &#160;&#160;&#160;</text>
</g>
<!-- positions&#45;&gt;velocities -->
<!-- inputs -->
<g id="node3" class="node"><title>inputs</title>
<polygon fill="#aaccff" stroke="black" points="360.5,-68 0.5,-68 0.5,-0 360.5,-0 360.5,-68"/>
<text text-anchor="start" x="15.5" y="-52.2" font-family="consolas" font-weight="bold" font-size="11.00">Inputs &#160;&#160;&#160;&#160;</text>
<text text-anchor="start" x="15.5" y="-32.2" font-family="consolas" font-size="11.00">lookup: </text>
<polygon fill="#eecc99" stroke="none" points="86.5,-26 86.5,-44 101.5,-44 101.5,-26 86.5,-26"/>
<polygon fill="none" stroke="black" points="86.5,-26 86.5,-44 101.5,-44 101.5,-26 86.5,-26"/>
<text text-anchor="start" x="90.5" y="-32.2" font-family="consolas" font-size="11.00">0</text>
<polygon fill="#eecc99" stroke="none" points="103.5,-26 103.5,-44 119.5,-44 119.5,-26 103.5,-26"/>
<polygon fill="none" stroke="black" stroke-dasharray="5,2" points="103.5,-26 103.5,-44 119.5,-44 119.5,-26 103.5,-26"/>
<text text-anchor="start" x="108" y="-32.2" font-family="consolas" font-size="11.00"> </text>
<polygon fill="#eecc99" stroke="none" stroke-dasharray="5,2" points="121.5,-26 121.5,-44 136.5,-44 136.5,-26 121.5,-26"/>
<polygon fill="none" stroke="black" points="121.5,-26 121.5,-44 136.5,-44 136.5,-26 121.5,-26"/>
<text text-anchor="start" x="125.5" y="-32.2" font-family="consolas" font-size="11.00">1</text>
<polygon fill="#eecc99" stroke="none" points="138.5,-26 138.5,-44 154.5,-44 154.5,-26 138.5,-26"/>
<polygon fill="none" stroke="black" stroke-dasharray="5,2" points="138.5,-26 138.5,-44 154.5,-44 154.5,-26 138.5,-26"/>
<text text-anchor="start" x="143" y="-32.2" font-family="consolas" font-size="11.00"> </text>
<polygon fill="#dddddd" stroke="none" stroke-dasharray="5,2" points="156.5,-26 156.5,-44 175.5,-44 175.5,-26 156.5,-26"/>
<polygon fill="none" stroke="black" stroke-dasharray="1,5" points="156.5,-26 156.5,-44 175.5,-44 175.5,-26 156.5,-26"/>
<text text-anchor="start" x="162.5" y="-32.2" font-family="consolas" font-size="11.00"> </text>
<polygon fill="#dddddd" stroke="none" stroke-dasharray="1,5" points="177.5,-26 177.5,-44 189.5,-44 189.5,-26 177.5,-26"/>
<polygon fill="none" stroke="black" stroke-dasharray="1,5" points="177.5,-26 177.5,-44 189.5,-44 189.5,-26 177.5,-26"/>
<polygon fill="#dddddd" stroke="none" stroke-dasharray="1,5" points="191.5,-26 191.5,-44 206.5,-44 206.5,-26 191.5,-26"/>
<polygon fill="none" stroke="black" stroke-dasharray="1,5" points="191.5,-26 191.5,-44 206.5,-44 206.5,-26 191.5,-26"/>
<polygon fill="#dddddd" stroke="none" stroke-dasharray="1,5" points="208.5,-26 208.5,-44 224.5,-44 224.5,-26 208.5,-26"/>
<polygon fill="none" stroke="black" stroke-dasharray="1,5" points="208.5,-26 208.5,-44 224.5,-44 224.5,-26 208.5,-26"/>
<text text-anchor="start" x="15.5" y="-12.2" font-family="consolas" font-size="11.00">data: </text>
<polygon fill="#eecc99" stroke="none" stroke-dasharray="1,5" points="86.5,-6 86.5,-24 119.5,-24 119.5,-6 86.5,-6"/>
<polygon fill="none" stroke="black" points="86.5,-6 86.5,-24 119.5,-24 119.5,-6 86.5,-6"/>
<text text-anchor="start" x="90.5" y="-12.2" font-family="consolas" font-size="11.00"> I0 </text>
<polygon fill="#eecc99" stroke="none" points="121.5,-6 121.5,-24 154.5,-24 154.5,-6 121.5,-6"/>
<polygon fill="none" stroke="black" points="121.5,-6 121.5,-24 154.5,-24 154.5,-6 121.5,-6"/>
<text text-anchor="start" x="125.5" y="-12.2" font-family="consolas" font-size="11.00"> I2 </text>
<polygon fill="#dddddd" stroke="none" points="156.5,-6 156.5,-24 189.5,-24 189.5,-6 156.5,-6"/>
<polygon fill="none" stroke="black" stroke-dasharray="1,5" points="156.5,-6 156.5,-24 189.5,-24 189.5,-6 156.5,-6"/>
<text text-anchor="start" x="160.5" y="-12.2" font-family="consolas" font-size="11.00"> &#160;&#160;&#160;</text>
<polygon fill="#dddddd" stroke="none" stroke-dasharray="1,5" points="191.5,-6 191.5,-24 224.5,-24 224.5,-6 191.5,-6"/>
<polygon fill="none" stroke="black" stroke-dasharray="1,5" points="191.5,-6 191.5,-24 224.5,-24 224.5,-6 191.5,-6"/>
<text text-anchor="start" x="195.5" y="-12.2" font-family="consolas" font-size="11.00"> &#160;&#160;&#160;</text>
</g>
<!-- velocities&#45;&gt;inputs -->
</g>
</svg>
